PathFileType	4	(X/Y/Z)	OpenSim_Sub03_CSStiffKnee_Magnet.trc
DataRate	CameraRate	NumFrames	NumMarkers	Units	OrigDataRate	OrigDataStartFrame	OrigNumFrames
100	100	36	8	m	100	3183	3637
Frame#	Time	torso_imu_offset_imu	pelvis_imu_offset_imu	tibia_r_imu_offset_imu	femur_r_imu_offset_imu	tibia_l_imu_offset_imu	femur_l_imu_offset_imu	toes_r_imu_offset_imu	toes_l_imu_offset_imu
				X1	Y1	Z1	X2	Y2	Z2	X3	Y3	Z3	X4	Y4	Z4	X5	Y5	Z5	X6	Y6	Z6	X7	Y7	Z7	X8		Y8	Z8	

3183	31.82000000	-0.88671900	-0.18359400	0.28808600	-0.71191400	0.14892600	-0.61523400	-0.28320300	-0.77832000	-0.15380900	-0.54199200	-0.77148400	-0.15600600	-0.73608400	0.30419900	0.20996100	-0.75952100	0.24365200	0.27978500	-0.74169900	-0.56835900	-0.14111300	-0.72778300	-0.14135700	-0.33886700
3184	31.83000000	-0.89086900	-0.18164100	0.28564500	-0.70971700	0.14697300	-0.61523400	-0.26635700	-0.78662100	-0.14697300	-0.55297900	-0.75073200	-0.16381800	-0.72558600	0.32397500	0.20898400	-0.76391600	0.24145500	0.28881800	-0.72436500	-0.59887700	-0.09912100	-0.72753900	-0.14355500	-0.33886700
3185	31.84000000	-0.88867200	-0.18359400	0.28564500	-0.71801800	0.14038100	-0.61254900	-0.24536100	-0.78857400	-0.14892600	-0.56176800	-0.74047900	-0.16870100	-0.72583000	0.33276400	0.20849600	-0.76611300	0.23901400	0.29541000	-0.70703100	-0.62744100	-0.05468800	-0.73217800	-0.14135700	-0.33886700
3186	31.85000000	-0.88842800	-0.18994100	0.27929700	-0.71801800	0.14038100	-0.61254900	-0.23657200	-0.79687500	-0.13745100	-0.57446300	-0.72827100	-0.17846700	-0.71752900	0.35253900	0.20507800	-0.75952100	0.24145500	0.30224600	-0.68139600	-0.65161100	-0.01684600	-0.73217800	-0.14355500	-0.33422900
3187	31.86000000	-0.89062500	-0.19213900	0.27514600	-0.72021500	0.14257800	-0.61279300	-0.22216800	-0.79687500	-0.13305700	-0.58325200	-0.71362300	-0.17895500	-0.70629900	0.35473600	0.21167000	-0.75732400	0.24145500	0.30444300	-0.66210900	-0.67187500	0.01489300	-0.73217800	-0.14135700	-0.34326200
3188	31.87000000	-0.88598600	-0.20263700	0.27563500	-0.71801800	0.14038100	-0.60791000	-0.20507800	-0.80322300	-0.11938500	-0.59399400	-0.70336900	-0.19775400	-0.70459000	0.37231400	0.21508800	-0.75537100	0.25219700	0.29760700	-0.63037100	-0.69409200	0.04663100	-0.72998000	-0.13916000	-0.33422900
3189	31.88000000	-0.88818400	-0.19848600	0.26879900	-0.72241200	0.14257800	-0.61035200	-0.19873000	-0.80957000	-0.11035200	-0.60302700	-0.68481400	-0.20068400	-0.70239300	0.37231400	0.21508800	-0.75585900	0.26318400	0.29077100	-0.60302700	-0.71215800	0.07202100	-0.72998000	-0.13696300	-0.33422900
3190	31.89000000	-0.88818400	-0.20483400	0.26684600	-0.71630900	0.15307600	-0.60839800	-0.18408200	-0.80737300	-0.11474600	-0.61181600	-0.67236300	-0.20800800	-0.69824200	0.38549800	0.21899400	-0.75390600	0.27417000	0.29052700	-0.58813500	-0.71997100	0.06811500	-0.73217800	-0.13916000	-0.33422900
3191	31.90000000	-0.89013700	-0.20898400	0.26709000	-0.71850600	0.15527300	-0.61328100	-0.17578100	-0.80957000	-0.12573200	-0.62255900	-0.66210900	-0.21313500	-0.69604500	0.38769500	0.21875000	-0.74536100	0.28295900	0.29052700	-0.58178700	-0.72387700	0.05151400	-0.73461900	-0.13696300	-0.33447300
3192	31.91000000	-0.89013700	-0.21118200	0.26709000	-0.71875000	0.16772500	-0.60913100	-0.17138700	-0.80932600	-0.14135700	-0.63330100	-0.65185500	-0.21118200	-0.69165000	0.38989300	0.22753900	-0.74560500	0.28710900	0.29272500	-0.57348600	-0.72583000	0.03906200	-0.73437500	-0.14135700	-0.33422900
3193	31.92000000	-0.88354500	-0.21533200	0.26733400	-0.71679700	0.16772500	-0.61377000	-0.16528300	-0.80517600	-0.16162100	-0.63964800	-0.64355500	-0.21386700	-0.68945300	0.39428700	0.23413100	-0.73730500	0.30249000	0.29248000	-0.58178700	-0.71972700	0.02221700	-0.73901400	-0.13696300	-0.33203100
3194	31.93000000	-0.88549800	-0.21533200	0.26733400	-0.71460000	0.17211900	-0.60913100	-0.17382800	-0.79687500	-0.17089800	-0.64624000	-0.63745100	-0.21191400	-0.68750000	0.39648400	0.22705100	-0.73291000	0.30249000	0.29931600	-0.58203100	-0.70947300	0.00976600	-0.73681600	-0.13916000	-0.32983400
3195	31.94000000	-0.88769500	-0.21752900	0.26293900	-0.71289100	0.18042000	-0.60717800	-0.17993200	-0.80102500	-0.17968800	-0.65283200	-0.62500000	-0.21240200	-0.68310500	0.40527300	0.23339800	-0.73120100	0.31567400	0.30810500	-0.59472700	-0.70361300	-0.00293000	-0.73925800	-0.13256800	-0.33203100
3196	31.95000000	-0.88549800	-0.21533200	0.26293900	-0.71508800	0.18261700	-0.60717800	-0.19262700	-0.79687500	-0.17089800	-0.65747100	-0.61474600	-0.20581100	-0.68530300	0.40307600	0.23120100	-0.72705100	0.32446300	0.30127000	-0.60546900	-0.68920900	-0.01782200	-0.73706100	-0.13037100	-0.32543900
3197	31.96000000	-0.88769500	-0.21752900	0.26293900	-0.70874000	0.19091800	-0.61230500	-0.20532200	-0.79467800	-0.17334000	-0.66162100	-0.61279300	-0.20361300	-0.68115200	0.41626000	0.23510700	-0.72045900	0.32885700	0.30566400	-0.61840800	-0.67504900	-0.04101600	-0.73925800	-0.13256800	-0.32983400
3198	31.97000000	-0.88134800	-0.21728500	0.26074200	-0.71093800	0.19091800	-0.61450200	-0.21411100	-0.78637700	-0.16235400	-0.67456100	-0.60034200	-0.20434600	-0.68115200	0.41406200	0.23974600	-0.71655300	0.34179700	0.30566400	-0.63134800	-0.65673800	-0.06640600	-0.74389600	-0.12597700	-0.33447300
3199	31.98000000	-0.88110400	-0.22168000	0.25659200	-0.70459000	0.19726600	-0.61718800	-0.23071300	-0.79077100	-0.15795900	-0.67480500	-0.59228500	-0.18847700	-0.68139600	0.41845700	0.23730500	-0.71460000	0.34619100	0.30542000	-0.64233400	-0.63452100	-0.08544900	-0.74365200	-0.13037100	-0.33886700
3200	31.99000000	-0.88525400	-0.22387700	0.26098600	-0.70703100	0.19946300	-0.61474600	-0.24975600	-0.78247100	-0.14917000	-0.68139600	-0.58398400	-0.18896500	-0.67919900	0.41845700	0.23950200	-0.70629900	0.36377000	0.30297900	-0.66577100	-0.60400400	-0.10913100	-0.73730500	-0.12597700	-0.33227500
3201	32	-0.88525400	-0.22387700	0.25659200	-0.70727500	0.20996100	-0.61767600	-0.27294900	-0.77832000	-0.14941400	-0.68554700	-0.58203100	-0.17749000	-0.67041000	0.42504900	0.23681600	-0.70629900	0.36377000	0.30761700	-0.68530300	-0.57983400	-0.12817400	-0.74609400	-0.13037100	-0.32983400
3202	32.01000000	-0.88330100	-0.22363300	0.26098600	-0.70288100	0.20996100	-0.61767600	-0.29614300	-0.77002000	-0.14086900	-0.69018600	-0.57373000	-0.18237300	-0.66845700	0.43383800	0.23413100	-0.70434600	0.37036100	0.30517600	-0.68994100	-0.55517600	-0.15356400	-0.74853500	-0.12377900	-0.33227500
3203	32.02000000	-0.88549800	-0.22168000	0.26098600	-0.70092800	0.21215800	-0.61987300	-0.31323200	-0.75952100	-0.13891600	-0.69458000	-0.56347700	-0.16918900	-0.66186500	0.44043000	0.23144500	-0.69799800	0.37475600	0.30297900	-0.70532200	-0.52880900	-0.17285200	-0.75097700	-0.11718800	-0.34130900
3204	32.03000000	-0.88525400	-0.22387700	0.25659200	-0.69458000	0.22045900	-0.62255900	-0.34057600	-0.75537100	-0.13476600	-0.69482400	-0.55932600	-0.16699200	-0.66650400	0.44482400	0.24023400	-0.69824200	0.38549800	0.30493200	-0.70996100	-0.50219700	-0.19824200	-0.74877900	-0.11718800	-0.33667000
3205	32.04000000	-0.88745100	-0.22583000	0.25878900	-0.68823200	0.22070300	-0.62963900	-0.35986300	-0.73877000	-0.13525400	-0.70117200	-0.55322300	-0.16259800	-0.66186500	0.44482400	0.24243200	-0.69384800	0.38574200	0.30273400	-0.71289100	-0.47168000	-0.22802700	-0.75341800	-0.11059600	-0.34130900
3206	32.05000000	-0.87890600	-0.22168000	0.25659200	-0.69043000	0.22070300	-0.63183600	-0.38549800	-0.72631800	-0.14257800	-0.70336900	-0.55322300	-0.15112300	-0.65795900	0.45800800	0.23950200	-0.69409200	0.38989300	0.29589800	-0.71337900	-0.45092800	-0.25122100	-0.75805700	-0.11059600	-0.33911100
3207	32.06000000	-0.88110400	-0.22583000	0.25439500	-0.68823200	0.22485400	-0.62744100	-0.41088900	-0.71362300	-0.14746100	-0.70581100	-0.54272500	-0.15380900	-0.65112300	0.45800800	0.24145500	-0.69433600	0.39868200	0.30493200	-0.69970700	-0.42016600	-0.27661100	-0.76220700	-0.11279300	-0.33667000
3208	32.07000000	-0.88525400	-0.22583000	0.25878900	-0.68627900	0.22485400	-0.62963900	-0.43676800	-0.69287100	-0.14135700	-0.70581100	-0.53662100	-0.14502000	-0.64917000	0.46679700	0.24560500	-0.68994100	0.40307600	0.28906200	-0.69384800	-0.39941400	-0.29370100	-0.76269500	-0.10180700	-0.33911100
3209	32.08000000	-0.88525400	-0.22387700	0.25878900	-0.68408200	0.22705100	-0.62988300	-0.46215800	-0.68042000	-0.15087900	-0.71875000	-0.52832000	-0.14062500	-0.64502000	0.47338900	0.24731400	-0.68774400	0.40307600	0.30029300	-0.69018600	-0.37475600	-0.32104500	-0.76733400	-0.09985400	-0.33691400
3210	32.09000000	-0.88330100	-0.21948200	0.26074200	-0.68627900	0.22705100	-0.62988300	-0.48803700	-0.65966800	-0.14941400	-0.71264600	-0.52417000	-0.14550800	-0.64502000	0.47338900	0.24731400	-0.68798800	0.40747100	0.30249000	-0.67627000	-0.35424800	-0.34008800	-0.76977500	-0.09326200	-0.33227500
3211	32.10000000	-0.88330100	-0.22168000	0.26318400	-0.68627900	0.22705100	-0.63671900	-0.51171900	-0.63867200	-0.15454100	-0.71484400	-0.52221700	-0.14086900	-0.63842800	0.47998000	0.24487300	-0.68383800	0.41406200	0.30249000	-0.67236300	-0.33764600	-0.35693400	-0.77417000	-0.09765600	-0.33007800
3212	32.11000000	-0.88549800	-0.21752900	0.26513700	-0.68188500	0.22924800	-0.63452100	-0.53100600	-0.62402300	-0.15283200	-0.72143600	-0.51196300	-0.14135700	-0.62963900	0.48437500	0.24658200	-0.68164100	0.41626000	0.30249000	-0.67089800	-0.31518600	-0.36572300	-0.77880900	-0.08886700	-0.32788100
3213	32.12000000	-0.88330100	-0.21752900	0.26293900	-0.68823200	0.22485400	-0.63916000	-0.55493200	-0.60131800	-0.14917000	-0.72143600	-0.51196300	-0.13452100	-0.63183600	0.48877000	0.24438500	-0.67749000	0.42285200	0.30688500	-0.66333000	-0.29052700	-0.37841800	-0.78588900	-0.08447300	-0.32568400
3214	32.13000000	-0.88134800	-0.21313500	0.26928700	-0.68408200	0.22924800	-0.63916000	-0.57641600	-0.58252000	-0.15210000	-0.71923800	-0.51196300	-0.13916000	-0.62988300	0.49755900	0.24389600	-0.66870100	0.42504900	0.31127900	-0.66577100	-0.27002000	-0.38916000	-0.78784200	-0.08667000	-0.32128900
3215	32.14000000	-0.88134800	-0.21313500	0.27368200	-0.68212900	0.23120100	-0.63916000	-0.59399400	-0.55957000	-0.14184600	-0.72338900	-0.51391600	-0.13891600	-0.62573200	0.50195300	0.24365200	-0.67114300	0.43164100	0.30908200	-0.66845700	-0.24951200	-0.40820300	-0.79687500	-0.08691400	-0.31884800
3216	32.15000000	-0.88134800	-0.21313500	0.26928700	-0.67968800	0.22485400	-0.63891600	-0.61328100	-0.54296900	-0.14453100	-0.72778300	-0.50976600	-0.13452100	-0.62109400	0.50415000	0.24780300	-0.66918900	0.43823200	0.30444300	-0.65649400	-0.22485400	-0.41064500	-0.79711900	-0.08032200	-0.31665000
3217	32.16000000	-0.88574200	-0.21313500	0.26709000	-0.68627900	0.22705100	-0.63916000	-0.63501000	-0.52197300	-0.13867200	-0.72363300	-0.50976600	-0.12548800	-0.61669900	0.50634800	0.25000000	-0.65820300	0.44043000	0.31103500	-0.65918000	-0.20043900	-0.43188500	-0.79956100	-0.07812500	-0.31005900
3218	32.17000000	-0.88354500	-0.21118200	0.27587900	-0.67968800	0.22705100	-0.63916000	-0.65039100	-0.49902300	-0.13501000	-0.72558600	-0.51391600	-0.12768600	-0.61474600	0.51318400	0.24511700	-0.66064500	0.44482400	0.30664100	-0.65576200	-0.17382800	-0.43652300	-0.80615200	-0.07812500	-0.30102500
